<mxfile host="65bd71144e">
    <diagram id="w4j5PuOrBlieU3xMHs4D" name="第 1 页">
        <mxGraphModel dx="2670" dy="2781" grid="1" gridSize="10" guides="1" tooltips="1" connect="1" arrows="1" fold="1" page="1" pageScale="1" pageWidth="827" pageHeight="1169" math="0" shadow="0">
            <root>
                <mxCell id="0"/>
                <mxCell id="1" parent="0"/>
                <mxCell id="2" value="Informer 简介" style="text;strokeColor=none;fillColor=none;html=1;align=center;verticalAlign=middle;whiteSpace=wrap;rounded=0;fontSize=50;" vertex="1" parent="1">
                    <mxGeometry x="370" y="-120" width="340" height="70" as="geometry"/>
                </mxCell>
                <mxCell id="3" value="&lt;h1 style=&quot;font-size: 24px;&quot;&gt;基于 ClientSet&lt;/h1&gt;&lt;p style=&quot;font-size: 24px;&quot;&gt;ClientSet 是从 API Server 获取 API Object 信息的途径，但它会消耗比较多的 API Server 资源，造成负担&lt;/p&gt;" style="text;html=1;strokeColor=none;fillColor=none;spacing=5;spacingTop=-20;whiteSpace=wrap;overflow=hidden;rounded=0;fontSize=24;" vertex="1" parent="1">
                    <mxGeometry x="-160" y="50" width="360" height="180" as="geometry"/>
                </mxCell>
                <mxCell id="5" value="&lt;h1 style=&quot;font-size: 24px;&quot;&gt;自行处理错误&lt;/h1&gt;&lt;p style=&quot;font-size: 24px;&quot;&gt;相对于 ClientSet 的 Watch 机制，Informer自行处理出错的情况并努力恢复，更好用&lt;/p&gt;" style="text;html=1;strokeColor=none;fillColor=none;spacing=5;spacingTop=-20;whiteSpace=wrap;overflow=hidden;rounded=0;fontSize=24;" vertex="1" parent="1">
                    <mxGeometry x="-160" y="450" width="360" height="180" as="geometry"/>
                </mxCell>
                <mxCell id="7" value="&lt;h1 style=&quot;font-size: 24px;&quot;&gt;监听 Server，缓存数据&lt;/h1&gt;&lt;p style=&quot;font-size: 24px;&quot;&gt;Informer 会和 API Server 建立连接，建通其上变化并把结果缓存在本地。Informer 的用户直接从 cache 获取数据&lt;/p&gt;" style="text;html=1;strokeColor=none;fillColor=none;spacing=5;spacingTop=-20;whiteSpace=wrap;overflow=hidden;rounded=0;fontSize=24;" vertex="1" parent="1">
                    <mxGeometry x="870" y="50" width="360" height="180" as="geometry"/>
                </mxCell>
                <mxCell id="8" value="&lt;h1 style=&quot;font-size: 24px;&quot;&gt;API Server 也在使用&lt;/h1&gt;&lt;p style=&quot;font-size: 24px;&quot;&gt;在 API Server 内部需要获取 ETCD 中的信息时，同样通过 Informer，而不是直接去读ETCD&lt;/p&gt;" style="text;html=1;strokeColor=none;fillColor=none;spacing=5;spacingTop=-20;whiteSpace=wrap;overflow=hidden;rounded=0;fontSize=24;" vertex="1" parent="1">
                    <mxGeometry x="870" y="470" width="360" height="180" as="geometry"/>
                </mxCell>
                <mxCell id="14" value="" style="group;fontSize=26;" vertex="1" connectable="0" parent="1">
                    <mxGeometry x="330" y="230" width="450" height="180" as="geometry"/>
                </mxCell>
                <mxCell id="9" value="" style="rounded=0;whiteSpace=wrap;html=1;fontSize=50;" vertex="1" parent="14">
                    <mxGeometry width="360" height="180" as="geometry"/>
                </mxCell>
                <mxCell id="10" value="Informer&amp;nbsp;" style="text;strokeColor=none;fillColor=none;html=1;align=center;verticalAlign=middle;whiteSpace=wrap;rounded=0;fontSize=30;" vertex="1" parent="14">
                    <mxGeometry x="120" y="10" width="140" height="30" as="geometry"/>
                </mxCell>
                <mxCell id="11" value="" style="outlineConnect=0;dashed=0;verticalLabelPosition=bottom;verticalAlign=top;align=center;html=1;shape=mxgraph.aws3.cache_node;fillColor=#2E73B8;gradientColor=none;fontSize=30;" vertex="1" parent="14">
                    <mxGeometry x="125" y="70" width="110" height="80" as="geometry"/>
                </mxCell>
                <mxCell id="12" value="Lister" style="rounded=0;whiteSpace=wrap;html=1;fontSize=26;fillColor=#d5e8d4;strokeColor=#82b366;" vertex="1" parent="14">
                    <mxGeometry x="331" y="30" width="119" height="40" as="geometry"/>
                </mxCell>
                <mxCell id="13" value="Informer" style="rounded=0;whiteSpace=wrap;html=1;fontSize=26;fillColor=#d5e8d4;strokeColor=#82b366;" vertex="1" parent="14">
                    <mxGeometry x="331" y="120" width="119" height="40" as="geometry"/>
                </mxCell>
                <mxCell id="16" style="edgeStyle=none;curved=1;rounded=0;orthogonalLoop=1;jettySize=auto;html=1;fontSize=30;endArrow=open;startSize=14;endSize=14;sourcePerimeterSpacing=8;targetPerimeterSpacing=8;" edge="1" parent="1" source="12">
                    <mxGeometry relative="1" as="geometry">
                        <mxPoint x="960" y="280" as="targetPoint"/>
                    </mxGeometry>
                </mxCell>
                <mxCell id="19" value="提供数据" style="edgeLabel;html=1;align=center;verticalAlign=middle;resizable=0;points=[];fontSize=20;" vertex="1" connectable="0" parent="16">
                    <mxGeometry x="-0.1375" relative="1" as="geometry">
                        <mxPoint as="offset"/>
                    </mxGeometry>
                </mxCell>
                <mxCell id="18" style="edgeStyle=none;curved=1;rounded=0;orthogonalLoop=1;jettySize=auto;html=1;fontSize=30;endArrow=open;startSize=14;endSize=14;sourcePerimeterSpacing=8;targetPerimeterSpacing=8;" edge="1" parent="1" source="13">
                    <mxGeometry relative="1" as="geometry">
                        <mxPoint x="960" y="370" as="targetPoint"/>
                    </mxGeometry>
                </mxCell>
                <mxCell id="20" value="触发回调" style="edgeLabel;html=1;align=center;verticalAlign=middle;resizable=0;points=[];fontSize=20;" vertex="1" connectable="0" parent="18">
                    <mxGeometry x="-0.2599" y="1" relative="1" as="geometry">
                        <mxPoint as="offset"/>
                    </mxGeometry>
                </mxCell>
                <mxCell id="21" value="" style="edgeStyle=none;orthogonalLoop=1;jettySize=auto;html=1;shape=flexArrow;rounded=1;startSize=8;endSize=15.292307692307691;fontSize=26;endArrow=open;sourcePerimeterSpacing=8;targetPerimeterSpacing=8;curved=1;endWidth=22.366863905325445;width=38.46153846153846;strokeColor=#2E73B8;fillColor=#2E73B8;" edge="1" parent="1">
                    <mxGeometry width="140" relative="1" as="geometry">
                        <mxPoint x="-20" y="330" as="sourcePoint"/>
                        <mxPoint x="330" y="330" as="targetPoint"/>
                        <Array as="points"/>
                    </mxGeometry>
                </mxCell>
                <mxCell id="22" value="Events form API Server" style="edgeLabel;html=1;align=center;verticalAlign=middle;resizable=0;points=[];fontSize=26;labelBackgroundColor=none;fontColor=#ffffff;" vertex="1" connectable="0" parent="21">
                    <mxGeometry x="-0.3802" y="-4" relative="1" as="geometry">
                        <mxPoint x="51" y="-4" as="offset"/>
                    </mxGeometry>
                </mxCell>
                <mxCell id="23" value="" style="aspect=fixed;html=1;points=[];align=center;image;fontSize=12;image=img/lib/azure2/blockchain/Azure_Blockchain_Service.svg;labelBackgroundColor=none;fontColor=#ffffff;" vertex="1" parent="1">
                    <mxGeometry x="120" y="430" width="68" height="68" as="geometry"/>
                </mxCell>
                <mxCell id="24" value="" style="aspect=fixed;html=1;points=[];align=center;image;fontSize=12;image=img/lib/azure2/blockchain/Outbound_Connection.svg;labelBackgroundColor=none;fontColor=#ffffff;" vertex="1" parent="1">
                    <mxGeometry x="1144" y="32" width="71" height="64" as="geometry"/>
                </mxCell>
                <mxCell id="25" value="" style="aspect=fixed;html=1;points=[];align=center;image;fontSize=12;image=img/lib/azure2/blockchain/Azure_Token_Service.svg;labelBackgroundColor=none;fontColor=#ffffff;" vertex="1" parent="1">
                    <mxGeometry x="1150" y="450" width="59" height="68" as="geometry"/>
                </mxCell>
                <mxCell id="26" value="" style="aspect=fixed;html=1;points=[];align=center;image;fontSize=12;image=img/lib/azure2/blockchain/Consortium.svg;labelBackgroundColor=none;fontColor=#ffffff;" vertex="1" parent="1">
                    <mxGeometry x="120" y="30" width="68" height="68" as="geometry"/>
                </mxCell>
            </root>
        </mxGraphModel>
    </diagram>
</mxfile>